<svg width="14" height="18" viewBox="0 0 14 18" fill="none" xmlns="http://www.w3.org/2000/svg">
<path d="M9.5 3.1665C9.5 1.78579 8.38071 0.666504 7 0.666504C5.61929 0.666504 4.5 1.78579 4.5 3.1665V8.1665C4.5 9.54722 5.61929 10.6665 7 10.6665C8.38071 10.6665 9.5 9.54722 9.5 8.1665V3.1665Z" stroke="#A1A5C1" stroke-width="1.3"/>
<path d="M1.16663 7.33301V8.16634C1.16663 9.71344 1.78121 11.1972 2.87517 12.2911C3.96913 13.3851 5.45286 13.9997 6.99996 13.9997C8.54706 13.9997 10.0308 13.3851 11.1247 12.2911C12.2187 11.1972 12.8333 9.71344 12.8333 8.16634V7.33301" stroke="#A1A5C1" stroke-width="1.3" stroke-linecap="round" stroke-linejoin="round"/>
<path d="M7 17.3333H9.5M7 14V17.3333V14ZM7 17.3333H4.5H7Z" stroke="#A1A5C1" stroke-width="1.3" stroke-linecap="round" stroke-linejoin="round"/>
</svg>
